<?xml version="1.0" encoding="utf-8"?>
<!-- Generator: Adobe Illustrator 24.1.3, SVG Export Plug-In . SVG Version: 6.00 Build 0)  -->
<svg version="1.1" id="Capa_1" xmlns="http://www.w3.org/2000/svg" xmlns:xlink="http://www.w3.org/1999/xlink" x="0px" y="0px"
	 viewBox="0 0 40 40" style="enable-background:new 0 0 40 40;" xml:space="preserve">
<style type="text/css">
	.st0{fill:rgb(255, 255, 255);}
</style>
<path class="st0" d="M10.7,36H5c-0.6,0-1-0.5-1-1V16C4,9.4,9.4,4,16,4h19c0.6,0,1,0.5,1,1v5.7c0,0.6-0.5,1-1,1H16
	c-2.4,0-4.3,1.9-4.3,4.3v19C11.8,35.5,11.3,36,10.7,36z M35.8,24l0.1-6.6c0-0.6-0.5-1-1-1H18.4c-0.6,0-1,0.5-1,1v5.7
	c0,0.6,0.5,1,1,1h9.7c-0.2,2.2-2.1,4-4.4,3.9h0h-5.5c-0.6,0-1,0.5-1,1v5.7c0,0.6,0.5,1,1,1h5.5c0.1,0,0.1,0,0.2,0
	C30.3,35.8,35.7,30.6,35.8,24z"/>
</svg>
