<?xml version="1.0" standalone="no"?>
<!DOCTYPE svg PUBLIC "-//W3C//DTD SVG 20010904//EN"
 "http://www.w3.org/TR/2001/REC-SVG-20010904/DTD/svg10.dtd">
<svg version="1.0" xmlns="http://www.w3.org/2000/svg"
 width="700.000000pt" height="700.000000pt" viewBox="0 0 700.000000 700.000000"
 preserveAspectRatio="xMidYMid meet">
<metadata>
Created by potrace 1.11, written by Peter Selinger 2001-2013
</metadata>
<g transform="translate(0.000000,700.000000) scale(0.100000,-0.100000)"
fill="#000000" stroke="none">
<path d="M2555 6284 c-60 -7 -121 -15 -135 -18 -14 -3 -34 -8 -45 -10 -141
-30 -268 -71 -402 -128 -104 -45 -276 -136 -281 -150 -2 -4 -8 -8 -13 -8 -21
0 -209 -143 -303 -230 -141 -131 -297 -322 -378 -465 -164 -286 -256 -566
-287 -870 -7 -65 -10 -705 -8 -1845 2 -1726 2 -1745 22 -1777 11 -18 41 -44
67 -58 l47 -26 549 3 548 3 38 25 c21 14 45 41 55 60 18 33 18 116 19 1751 0
944 3 1736 7 1760 27 174 86 297 200 418 100 107 222 176 372 212 88 21 95 21
1808 21 1834 0 1755 -2 1809 46 10 9 27 35 37 57 17 37 19 77 19 571 l0 530
-25 50 c-19 38 -36 56 -67 72 l-43 22 -1750 -1 c-1386 -1 -1773 -4 -1860 -15z"/>
<path d="M3142 4109 c-48 -24 -75 -58 -89 -109 -11 -42 -10 -1051 1 -1097 9
-38 83 -108 121 -115 14 -3 410 -5 880 -4 470 1 856 -2 856 -6 1 -5 2 -14 3
-20 3 -21 -32 -153 -54 -203 -68 -159 -216 -312 -370 -384 -145 -68 -154 -69
-780 -70 -633 -1 -602 2 -664 -75 l-31 -38 0 -562 0 -563 27 -35 c15 -20 47
-45 70 -57 42 -20 53 -20 673 -17 347 2 639 6 650 8 11 3 45 9 75 13 112 14
340 74 430 112 317 136 518 270 736 491 281 285 502 717 558 1095 31 203 29
162 49 1472 1 70 -35 130 -99 164 l-39 21 -1480 0 -1480 0 -43 -21z"/>
</g>
</svg>
